{
	"asset":{
		"generator":"Khronos glTF Blender I/O v5.2.39",
		"version":"2.0"
	},
	"scene":0,
	"scenes":[
		{
			"name":"Scene",
			"nodes":[
				8
			]
		}
	],
	"nodes":[
		{
			"mesh":0,
			"name":"body"
		},
		{
			"children":[
				0
			],
			"name":"occurrence of body"
		},
		{
			"mesh":1,
			"name":"faceplate"
		},
		{
			"children":[
				2
			],
			"name":"occurrence of faceplate",
			"translation":[
				0.0002500000118743628,
				-0.00011839034414151683,
				-2.4209134608099703e-06
			]
		},
		{
			"mesh":2,
			"name":"plug"
		},
		{
			"children":[
				4
			],
			"name":"occurrence of plug",
			"translation":[
				0,
				0.011429999954998493,
				-0.030162500217556953
			]
		},
		{
			"mesh":3,
			"name":"screen"
		},
		{
			"children":[
				6
			],
			"name":"occurrence of screen",
			"rotation":[
				0.31220516562461853,
				0,
				0,
				0.9500147104263306
			],
			"translation":[
				0.0002500000118743628,
				0.03805530443787575,
				-0.004411362111568451
			]
		},
		{
			"children":[
				1,
				3,
				5,
				7
			],
			"name":"Assembly 2"
		}
	],
	"materials":[
		{
			"doubleSided":true,
			"name":"1.000000_1.000000_0.000000_0.000000_0.000000",
			"pbrMetallicRoughness":{
				"baseColorFactor":[
					1,
					1,
					0,
					1
				],
				"metallicFactor":0
			}
		},
		{
			"doubleSided":true,
			"name":"0.000000_0.000000_1.000000_0.000000_0.000000",
			"pbrMetallicRoughness":{
				"baseColorFactor":[
					0,
					0,
					1,
					1
				],
				"metallicFactor":0
			}
		},
		{
			"doubleSided":true,
			"name":"0.000000_1.000000_0.000000_0.000000_0.000000",
			"pbrMetallicRoughness":{
				"baseColorFactor":[
					0,
					1,
					0,
					1
				],
				"metallicFactor":0
			}
		},
		{
			"doubleSided":true,
			"name":"1.000000_0.000000_0.000000_0.000000_0.000000",
			"pbrMetallicRoughness":{
				"metallicFactor":0
			}
		}
	],
	"meshes":[
		{
			"name":"mesh0_mesh",
			"primitives":[
				{
					"attributes":{
						"POSITION":0,
						"NORMAL":1,
						"TEXCOORD_0":2
					},
					"indices":3,
					"material":0
				}
			]
		},
		{
			"name":"mesh75_mesh",
			"primitives":[
				{
					"attributes":{
						"POSITION":4,
						"NORMAL":5,
						"TEXCOORD_0":6
					},
					"indices":7,
					"material":1
				}
			]
		},
		{
			"name":"mesh49_mesh",
			"primitives":[
				{
					"attributes":{
						"POSITION":8,
						"NORMAL":9,
						"TEXCOORD_0":10
					},
					"indices":11,
					"material":2
				}
			]
		},
		{
			"name":"mesh132_mesh",
			"primitives":[
				{
					"attributes":{
						"POSITION":12,
						"NORMAL":13,
						"TEXCOORD_0":14
					},
					"indices":15,
					"material":3
				}
			]
		}
	],
	"accessors":[
		{
			"bufferView":0,
			"componentType":5126,
			"count":3294,
			"max":[
				0.030162500217556953,
				0.05714999884366989,
				0.030162500217556953
			],
			"min":[
				-0.030162500217556953,
				0,
				-0.030162500217556953
			],
			"type":"VEC3"
		},
		{
			"bufferView":1,
			"componentType":5126,
			"count":3294,
			"type":"VEC3"
		},
		{
			"bufferView":2,
			"componentType":5126,
			"count":3294,
			"type":"VEC2"
		},
		{
			"bufferView":3,
			"componentType":5123,
			"count":8160,
			"type":"SCALAR"
		},
		{
			"bufferView":4,
			"componentType":5126,
			"count":7624,
			"max":[
				0.028892500326037407,
				0.05639663711190224,
				0.029140079393982887
			],
			"min":[
				-0.028892500326037407,
				0.009509537369012833,
				-0.029140079393982887
			],
			"type":"VEC3"
		},
		{
			"bufferView":5,
			"componentType":5126,
			"count":7624,
			"type":"VEC3"
		},
		{
			"bufferView":6,
			"componentType":5126,
			"count":7624,
			"type":"VEC2"
		},
		{
			"bufferView":7,
			"componentType":5123,
			"count":18396,
			"type":"SCALAR"
		},
		{
			"bufferView":8,
			"componentType":5126,
			"count":2384,
			"max":[
				0.007000000216066837,
				0.007825000211596489,
				0.014399999752640724
			],
			"min":[
				-0.007000000216066837,
				-0.007825000211596489,
				-0.00215000007301569
			],
			"type":"VEC3"
		},
		{
			"bufferView":9,
			"componentType":5126,
			"count":2384,
			"type":"VEC3"
		},
		{
			"bufferView":10,
			"componentType":5126,
			"count":2384,
			"type":"VEC2"
		},
		{
			"bufferView":11,
			"componentType":5123,
			"count":7020,
			"type":"SCALAR"
		},
		{
			"bufferView":12,
			"componentType":5126,
			"count":1315,
			"max":[
				0.021069999784231186,
				0.0018500000005587935,
				0.021069999784231186
			],
			"min":[
				-0.021069999784231186,
				0,
				-0.021069999784231186
			],
			"type":"VEC3"
		},
		{
			"bufferView":13,
			"componentType":5126,
			"count":1315,
			"type":"VEC3"
		},
		{
			"bufferView":14,
			"componentType":5126,
			"count":1315,
			"type":"VEC2"
		},
		{
			"bufferView":15,
			"componentType":5123,
			"count":6036,
			"type":"SCALAR"
		}
	],
	"bufferViews":[
		{
			"buffer":0,
			"byteLength":39528,
			"byteOffset":0,
			"target":34962
		},
		{
			"buffer":0,
			"byteLength":39528,
			"byteOffset":39528,
			"target":34962
		},
		{
			"buffer":0,
			"byteLength":26352,
			"byteOffset":79056,
			"target":34962
		},
		{
			"buffer":0,
			"byteLength":16320,
			"byteOffset":105408,
			"target":34963
		},
		{
			"buffer":0,
			"byteLength":91488,
			"byteOffset":121728,
			"target":34962
		},
		{
			"buffer":0,
			"byteLength":91488,
			"byteOffset":213216,
			"target":34962
		},
		{
			"buffer":0,
			"byteLength":60992,
			"byteOffset":304704,
			"target":34962
		},
		{
			"buffer":0,
			"byteLength":36792,
			"byteOffset":365696,
			"target":34963
		},
		{
			"buffer":0,
			"byteLength":28608,
			"byteOffset":402488,
			"target":34962
		},
		{
			"buffer":0,
			"byteLength":28608,
			"byteOffset":431096,
			"target":34962
		},
		{
			"buffer":0,
			"byteLength":19072,
			"byteOffset":459704,
			"target":34962
		},
		{
			"buffer":0,
			"byteLength":14040,
			"byteOffset":478776,
			"target":34963
		},
		{
			"buffer":0,
			"byteLength":15780,
			"byteOffset":492816,
			"target":34962
		},
		{
			"buffer":0,
			"byteLength":15780,
			"byteOffset":508596,
			"target":34962
		},
		{
			"buffer":0,
			"byteLength":10520,
			"byteOffset":524376,
			"target":34962
		},
		{
			"buffer":0,
			"byteLength":12072,
			"byteOffset":534896,
			"target":34963
		}
	],
	"buffers":[
		{
			"byteLength":546968,
			"uri":"radar_v5.bin"
		}
	]
}
